<?xml version="1.0" standalone="no"?>
<!DOCTYPE svg PUBLIC "-//W3C//DTD SVG 20010904//EN"
 "http://www.w3.org/TR/2001/REC-SVG-20010904/DTD/svg10.dtd">
<svg version="1.0" xmlns="http://www.w3.org/2000/svg"
 width="1254.000000pt" height="1254.000000pt" viewBox="0 0 1254.000000 1254.000000"
 preserveAspectRatio="xMidYMid meet">

<g transform="translate(0.000000,1254.000000) scale(0.100000,-0.100000)"
fill="#000000" stroke="none">
<path d="M6506 9815 c-168 -109 -321 -192 -786 -427 -542 -274 -756 -400
-1047 -616 -653 -486 -1107 -1059 -1341 -1692 -199 -540 -224 -1109 -75 -1705
139 -560 362 -969 714 -1316 185 -182 364 -314 761 -561 196 -121 290 -193
435 -330 172 -162 226 -192 347 -192 63 1 115 10 231 41 295 80 428 102 800
128 590 43 1015 148 1415 351 472 239 798 577 1050 1089 270 548 397 1163 362
1752 -29 480 -141 902 -351 1321 -192 382 -408 671 -757 1012 -240 235 -384
352 -907 737 -164 121 -359 271 -433 334 -188 158 -189 159 -243 158 -40 0
-62 -11 -175 -84z m195 -122 c44 -52 245 -209 744 -578 194 -143 374 -287 515
-411 146 -128 408 -398 514 -529 371 -463 606 -992 690 -1561 92 -613 -8
-1288 -274 -1865 -214 -461 -488 -781 -862 -1007 -89 -54 -261 -142 -266 -137
-2 2 2 23 9 46 19 68 14 203 -10 280 -40 127 -135 241 -251 299 -90 45 -165
62 -315 69 -174 9 -194 19 -291 137 -79 97 -123 135 -202 175 -88 44 -147 53
-302 43 -74 -4 -184 -8 -245 -8 -133 0 -152 7 -313 122 -62 44 -147 95 -190
113 -68 29 -90 33 -194 37 -107 4 -126 2 -205 -23 -49 -15 -133 -51 -188 -80
-177 -94 -240 -99 -420 -32 -161 59 -214 71 -315 71 -202 -2 -391 -104 -485
-263 -16 -28 -33 -51 -37 -51 -24 -1 -207 356 -272 533 -150 404 -221 888
-186 1272 15 162 27 233 70 400 173 674 604 1289 1265 1806 315 247 584 407
1205 720 362 182 532 275 694 379 50 32 94 59 97 59 4 1 13 -6 20 -16z m-1200
-4943 c77 -15 170 -61 268 -134 192 -143 308 -169 583 -130 190 27 298 -7 395
-123 163 -196 209 -221 433 -234 199 -11 246 -26 330 -105 29 -27 59 -69 76
-107 25 -53 29 -74 29 -147 0 -76 -3 -92 -33 -150 -52 -104 -68 -118 -163
-146 -122 -36 -367 -90 -492 -108 -60 -9 -226 -25 -370 -36 -408 -31 -540 -51
-818 -126 -175 -47 -238 -53 -294 -30 -19 8 -87 65 -151 126 -144 136 -253
219 -471 356 -406 256 -557 368 -750 561 -151 150 -151 150 -104 248 67 142
239 237 398 221 34 -4 95 -18 135 -32 211 -74 248 -84 321 -84 102 0 172 21
323 96 116 57 216 91 280 93 12 1 45 -4 75 -9z"/>
<path d="M6209 9184 c-13 -15 -197 -187 -409 -382 -756 -699 -1086 -1050
-1336 -1422 -221 -329 -369 -650 -454 -985 -61 -240 -75 -349 -75 -595 0 -236
13 -339 65 -538 26 -98 88 -268 95 -260 1 2 -5 64 -15 138 -30 217 -39 373
-35 560 15 694 260 1305 783 1950 140 172 273 318 583 641 495 514 687 722
792 857 48 62 52 86 6 36z"/>
<path d="M7684 8139 c420 -816 560 -1621 425 -2434 -69 -415 -203 -835 -418
-1309 -17 -38 -30 -71 -27 -73 2 -2 26 27 53 64 178 241 295 478 402 808 110
340 170 720 171 1082 1 746 -215 1438 -605 1938 -35 44 -70 87 -79 94 -9 8 26
-69 78 -170z"/>
<path d="M7077 7370 c-29 -613 -37 -714 -83 -1010 -63 -407 -161 -796 -333
-1330 -33 -101 -58 -186 -56 -188 7 -7 83 117 139 227 187 368 312 803 388
1351 9 63 13 203 12 415 0 278 -3 338 -22 460 -33 212 -38 220 -45 75z"/>
<path d="M5529 7348 c-149 -169 -254 -313 -371 -508 -358 -595 -491 -1192
-378 -1700 34 -152 36 -147 43 91 4 123 14 274 22 334 72 557 270 1061 682
1734 35 57 62 105 60 107 -2 2 -28 -24 -58 -58z"/>
<path d="M8797 6175 c-3 -132 -13 -294 -21 -359 -86 -656 -301 -1179 -700
-1699 -142 -185 -142 -185 -49 -111 284 228 526 575 667 959 159 433 206 855
141 1285 -27 186 -31 178 -38 -75z"/>
</g>
</svg>
